<?xml version="1.0" standalone="no"?>
<svg xmlns:xlink="http://www.w3.org/1999/xlink" id="wave" style="transform:rotate(180deg); transition: 0.3s" viewBox="0 0 1440 110" version="1.1" xmlns="http://www.w3.org/2000/svg"><defs><linearGradient id="sw-gradient-0" x1="0" x2="0" y1="1" y2="0"><stop stop-color="rgba(252, 250, 242, 1)" offset="0%"/><stop stop-color="rgba(252, 250, 242, 1)" offset="100%"/></linearGradient></defs><path style="transform:translate(0, 0px); opacity:1" fill="url(#sw-gradient-0)" d="M0,33L40,36.7C80,40,160,48,240,49.5C320,51,400,48,480,45.8C560,44,640,44,720,51.3C800,59,880,73,960,69.7C1040,66,1120,44,1200,33C1280,22,1360,22,1440,20.2C1520,18,1600,15,1680,22C1760,29,1840,48,1920,60.5C2000,73,2080,81,2160,80.7C2240,81,2320,73,2400,66C2480,59,2560,51,2640,42.2C2720,33,2800,22,2880,18.3C2960,15,3040,18,3120,29.3C3200,40,3280,59,3360,66C3440,73,3520,70,3600,69.7C3680,70,3760,73,3840,75.2C3920,77,4000,77,4080,78.8C4160,81,4240,84,4320,71.5C4400,59,4480,29,4560,22C4640,15,4720,29,4800,33C4880,37,4960,29,5040,27.5C5120,26,5200,29,5280,27.5C5360,26,5440,18,5520,29.3C5600,40,5680,70,5720,84.3L5760,99L5760,110L5720,110C5680,110,5600,110,5520,110C5440,110,5360,110,5280,110C5200,110,5120,110,5040,110C4960,110,4880,110,4800,110C4720,110,4640,110,4560,110C4480,110,4400,110,4320,110C4240,110,4160,110,4080,110C4000,110,3920,110,3840,110C3760,110,3680,110,3600,110C3520,110,3440,110,3360,110C3280,110,3200,110,3120,110C3040,110,2960,110,2880,110C2800,110,2720,110,2640,110C2560,110,2480,110,2400,110C2320,110,2240,110,2160,110C2080,110,2000,110,1920,110C1840,110,1760,110,1680,110C1600,110,1520,110,1440,110C1360,110,1280,110,1200,110C1120,110,1040,110,960,110C880,110,800,110,720,110C640,110,560,110,480,110C400,110,320,110,240,110C160,110,80,110,40,110L0,110Z"/></svg>